# xmcd
#
# Track frame offsets: 
#        150
#        18940
#        39721
#        55758
#        73396
#        91957
#        118384
#        133930
#        152036
#        170885
#        196971
#        219325
#        237124
#        255162
#        271566
#        292210
#
# Disc length: 4128 seconds
#
# Revision: 0
# Processed by: cddbd v1.5.2PL0 Copyright (c) Steve Scherf et al.
# Submitted via: ExactAudioCopy v1.3
#
DISCID=ee101e10
DTITLE=The Black Sorrows - The Chosen Ones
DYEAR=1993
DGENRE=Blues Rock
TTITLE0=The Chosen Ones
TTITLE1=Come On, Come On
TTITLE2=Brown Eyed Girl
TTITLE3=Hold on to Me
TTITLE4=Never Let Me Go
TTITLE5=Ain't Love the Strangest Thing
TTITLE6=The Crack Up
TTITLE7=Chained to the Wheel
TTITLE8=Daughters of Glory
TTITLE9=Hold It Up to the Mirror
TTITLE10=Better Times
TTITLE11=Harley and Rose
TTITLE12=Baby It's a Crime
TTITLE13=Stir It Up
TTITLE14=Mystified
TTITLE15=Sons of the Sea
EXTD=
EXTT0=
EXTT1=
EXTT2=
EXTT3=
EXTT4=
EXTT5=
EXTT6=
EXTT7=
EXTT8=
EXTT9=
EXTT10=
EXTT11=
EXTT12=
EXTT13=
EXTT14=
EXTT15=
PLAYORDER=
